<svg version="1.1" id="Layer_1" xmlns="http://www.w3.org/2000/svg" xmlns:xlink="http://www.w3.org/1999/xlink" x="0px" y="0px"
	 width="80px" height="80px" viewBox="0 0 512 512" enable-background="new 0 0 512 512" xml:space="preserve" preserveAspectRatio="xMidYMid meet">
<path fill="#3E39DC" opacity="1.000000" stroke="none"
	d="
M0.999997,485.000000 
	C1.000000,333.309265 1.000000,181.618515 1.320580,29.734768 
	C1.897683,29.332678 2.291342,29.174690 2.391037,28.907158 
	C7.106881,16.252123 15.599912,7.391677 28.412041,2.786619 
	C28.775169,2.656100 28.811361,1.615985 29.000000,1.000000 
	C180.690750,1.000000 332.381500,1.000000 484.233337,1.300270 
	C484.721832,1.976811 484.976501,2.547740 485.387146,2.701060 
	C497.736755,7.312140 506.340179,15.682809 511.086456,28.023443 
	C511.277710,28.520727 512.342285,28.682119 513.000000,29.000004 
	C513.000000,180.690750 513.000000,332.381500 512.677124,484.270874 
	C512.097107,484.679230 511.704834,484.837341 511.602051,485.106110 
	C506.794495,497.675201 498.589722,506.828003 485.568085,511.228119 
	C485.218994,511.346039 485.182312,512.388611 485.000000,513.000000 
	C333.309265,513.000000 181.618515,513.000000 29.734663,512.679382 
	C29.332510,512.102295 29.174980,511.711212 28.907007,511.608643 
	C16.346645,506.800323 7.213839,498.581665 2.785991,485.590973 
	C2.663874,485.232666 1.616114,485.189911 0.999997,485.000000 
M127.500443,276.234406 
	C120.888725,276.234406 114.277008,276.234406 107.582016,276.234406 
	C107.582016,320.087158 107.582016,363.290802 107.582016,406.505920 
	C151.073578,406.505920 194.158005,406.505920 237.351837,406.505920 
	C237.351837,362.983856 237.351837,319.781433 237.351837,276.234436 
	C200.792892,276.234436 164.646622,276.234436 127.500443,276.234406 
M393.325470,212.816513 
	C406.351166,198.808487 412.505798,182.313049 411.254181,163.157196 
	C409.528870,136.752472 392.392761,114.585991 366.995178,105.863739 
	C342.638336,97.498909 315.103577,104.819237 297.778320,124.265549 
	C280.227478,143.965057 276.205627,171.894623 287.485565,195.540375 
	C306.678711,235.774185 359.988983,246.100067 393.325470,212.816513 
M218.499298,232.914978 
	C224.766129,232.914978 231.032959,232.914978 237.426910,232.914978 
	C237.426910,189.431702 237.426910,146.597870 237.426910,104.911530 
	C194.957657,147.356522 152.084351,190.205322 109.350288,232.914978 
	C144.962555,232.914978 181.231094,232.914978 218.499298,232.914978 
z"/>
<path fill="#FEFEFF" opacity="1.000000" stroke="none"
	d="
M513.000000,28.531345 
	C512.342285,28.682119 511.277710,28.520727 511.086456,28.023443 
	C506.340179,15.682809 497.736755,7.312140 485.387146,2.701060 
	C484.976501,2.547740 484.721832,1.976811 484.697235,1.300270 
	C494.259796,1.000000 503.519562,1.000000 513.000000,1.000000 
	C513.000000,10.019698 513.000000,19.041191 513.000000,28.531345 
z"/>
<path fill="#FEFEFF" opacity="1.000000" stroke="none"
	d="
M28.531342,1.000000 
	C28.811361,1.615985 28.775169,2.656100 28.412041,2.786619 
	C15.599912,7.391677 7.106881,16.252123 2.391037,28.907158 
	C2.291342,29.174690 1.897683,29.332678 1.320580,29.270885 
	C1.000000,19.740208 1.000000,10.480416 1.000000,1.000000 
	C10.019698,1.000000 19.041191,1.000000 28.531342,1.000000 
z"/>
<path fill="#FEFEFF" opacity="1.000000" stroke="none"
	d="
M0.999997,485.468689 
	C1.616114,485.189911 2.663874,485.232666 2.785991,485.590973 
	C7.213839,498.581665 16.346645,506.800323 28.907007,511.608643 
	C29.174980,511.711212 29.332510,512.102295 29.270779,512.679382 
	C19.740210,513.000000 10.480418,513.000000 1.000000,513.000000 
	C1.000000,503.980316 1.000000,494.958801 0.999997,485.468689 
z"/>
<path fill="#FEFEFF" opacity="1.000000" stroke="none"
	d="
M485.468628,513.000000 
	C485.182312,512.388611 485.218994,511.346039 485.568085,511.228119 
	C498.589722,506.828003 506.794495,497.675201 511.602051,485.106110 
	C511.704834,484.837341 512.097107,484.679230 512.677124,484.734741 
	C513.000000,494.259796 513.000000,503.519562 513.000000,513.000000 
	C503.980316,513.000000 494.958801,513.000000 485.468628,513.000000 
z"/>
<path fill="#FDFDFF" opacity="1.000000" stroke="none"
	d="
M128.000397,276.234436 
	C164.646622,276.234436 200.792892,276.234436 237.351837,276.234436 
	C237.351837,319.781433 237.351837,362.983856 237.351837,406.505920 
	C194.158005,406.505920 151.073578,406.505920 107.582016,406.505920 
	C107.582016,363.290802 107.582016,320.087158 107.582016,276.234406 
	C114.277008,276.234406 120.888725,276.234406 128.000397,276.234436 
z"/>
<path fill="#FEFEFF" opacity="1.000000" stroke="none"
	d="
M393.086884,213.080811 
	C359.988983,246.100067 306.678711,235.774185 287.485565,195.540375 
	C276.205627,171.894623 280.227478,143.965057 297.778320,124.265549 
	C315.103577,104.819237 342.638336,97.498909 366.995178,105.863739 
	C392.392761,114.585991 409.528870,136.752472 411.254181,163.157196 
	C412.505798,182.313049 406.351166,198.808487 393.086884,213.080811 
z"/>
<path fill="#FEFEFF" opacity="1.000000" stroke="none"
	d="
M217.999466,232.914978 
	C181.231094,232.914978 144.962555,232.914978 109.350288,232.914978 
	C152.084351,190.205322 194.957657,147.356522 237.426910,104.911530 
	C237.426910,146.597870 237.426910,189.431702 237.426910,232.914978 
	C231.032959,232.914978 224.766129,232.914978 217.999466,232.914978 
z"/>
</svg>